# xmcd
#
# Track frame offsets:
# 150
# 18836
# 30881
# 45306
# 67528
# 83456
# 115158
# 131653
# 151038
# 175766
# 198961
# 210069
# 235084
# 246682
# 259074
# 282657
# 301699
# 325149
#
# Disc length: 4642 seconds
#
#
# Revision: 1
# Processed by: cddbd v1.5.2PL0 Copyright (c) Steve Scherf et al.
# Submitted via: FreeRIP 2.944 
#
DISCID=d3122012
DTITLE=B.B. King - B. B. King Gold
DYEAR=2001
DGENRE=Blues
TTITLE0=Into The Night
TTITLE1=How Blue Can Tou Get
TTITLE2=Ain't Nobody Home
TTITLE3=The Thrill Is Gone
TTITLE4=Paying The Cost To Be The Boss
TTITLE5=Sweet Sixteen
TTITLE6=My Lucille
TTITLE7=Six Silver String
TTITLE8=Let The Good Times Roll
TTITLE9=Double Trouble
TTITLE10=Every Day I Have The Blues [Live]
TTITLE11=So Excited
TTITLE12=Never Trust A Woman
TTITLE13=Broken Heart
TTITLE14=Playing White My Friends
TTITLE15=I'm Moving On
TTITLE16=The Blues Come Over Me
TTITLE17=Don't Answer The Door
EXTD=
EXTT0=
EXTT1=
EXTT2=
EXTT3=
EXTT4=
EXTT5=
EXTT6=
EXTT7=
EXTT8=
EXTT9=
EXTT10=
EXTT11=
EXTT12=
EXTT13=
EXTT14=
EXTT15=
EXTT16=
EXTT17=
PLAYORDER=
